<?xml version="1.0" standalone="no"?>
<!DOCTYPE svg PUBLIC "-//W3C//DTD SVG 20010904//EN"
 "http://www.w3.org/TR/2001/REC-SVG-20010904/DTD/svg10.dtd">
<svg version="1.0" xmlns="http://www.w3.org/2000/svg"
 width="860.000000pt" height="914.000000pt" viewBox="0 0 860.000000 914.000000"
 preserveAspectRatio="xMidYMid meet">
<metadata>
Created by potrace 1.16, written by Peter Selinger 2001-2019
</metadata>
<g transform="translate(0.000000,914.000000) scale(0.100000,-0.100000)"
fill="#000000" stroke="none">
<path d="M5060 8723 c-99 -16 -193 -39 -305 -74 -221 -70 -207 -62 -334 -183
-163 -158 -191 -176 -249 -169 -41 4 -50 2 -68 -18 -29 -33 -84 -171 -84 -211
0 -24 -19 -66 -62 -139 -100 -168 -185 -381 -275 -684 -19 -67 -81 -170 -161
-269 -36 -44 -74 -95 -84 -112 l-18 -31 37 -7 c33 -5 61 -18 185 -83 25 -13
40 -12 134 6 117 23 179 26 219 11 14 -5 68 -15 118 -21 76 -9 107 -8 176 5
46 9 133 16 195 16 61 0 137 4 168 9 35 6 80 6 120 0 35 -5 116 -16 180 -24
67 -8 138 -23 163 -34 26 -12 43 -15 38 -8 -12 20 -104 138 -164 210 -35 42
-65 91 -79 128 -12 33 -32 76 -44 94 -33 48 -101 260 -126 390 -12 61 -30 144
-40 185 -30 118 -35 196 -16 268 21 82 47 125 149 248 145 172 186 195 357
202 139 5 206 -8 385 -73 71 -25 171 -58 223 -72 l94 -25 30 29 c41 39 70 100
70 145 -1 39 -25 132 -41 156 -5 9 -59 21 -142 33 -73 11 -190 33 -259 49
-225 53 -385 70 -490 53z"/>
<path d="M2790 6799 c-305 -38 -687 -198 -963 -402 -336 -249 -667 -687 -877
-1162 -184 -413 -289 -836 -341 -1370 -7 -73 -13 -264 -13 -435 -1 -272 2
-319 22 -434 96 -549 311 -978 671 -1337 374 -373 823 -600 1311 -665 99 -13
167 -15 325 -10 181 6 420 -7 545 -29 14 -2 50 -7 80 -10 86 -10 372 -59 635
-109 520 -98 625 -110 960 -110 376 0 511 22 999 165 396 116 465 145 469 197
1 17 27 38 110 90 289 178 551 444 734 743 214 353 379 854 449 1374 26 185
26 668 1 845 -81 577 -280 1050 -620 1472 -267 332 -691 659 -1152 889 -145
73 -181 87 -185 74 -7 -20 -56 -46 -95 -51 -47 -6 -55 -12 -55 -38 0 -14 -10
-30 -23 -39 -22 -15 -27 -13 -88 30 -91 64 -219 125 -219 105 0 -4 37 -33 83
-64 45 -32 98 -72 117 -89 19 -17 46 -40 60 -51 24 -19 24 -20 7 -33 -12 -8
-14 -15 -7 -20 6 -3 9 -13 8 -21 -2 -8 11 -25 27 -39 l30 -24 -26 -1 c-38 0
-45 -27 -14 -58 26 -26 32 -42 15 -42 -15 0 -12 -30 4 -36 24 -9 42 -80 25
-100 -7 -9 -8 -23 -2 -41 11 -36 10 -53 -6 -81 -11 -21 -10 -26 9 -42 16 -14
27 -17 40 -10 24 13 45 -9 24 -24 -19 -15 -10 -40 21 -54 26 -12 40 4 28 36
-6 15 -5 15 10 3 9 -7 17 -19 17 -27 0 -7 9 -18 20 -24 11 -6 20 -20 20 -31 0
-14 9 -21 29 -25 27 -6 41 -21 46 -49 1 -10 5 -21 36 -93 19 -45 16 -72 -7
-72 -22 0 -16 -15 10 -30 31 -16 39 -36 26 -60 -17 -31 -11 -57 15 -74 28 -18
58 -79 56 -113 0 -13 4 -23 10 -23 5 0 8 -4 4 -9 -3 -5 1 -29 9 -52 16 -47 14
-59 -12 -59 -13 0 -12 -4 7 -19 18 -13 22 -23 16 -37 -5 -13 -9 -15 -12 -6 -5
14 -33 16 -33 2 0 -5 -7 -7 -15 -4 -18 7 -20 -7 -4 -23 7 -7 25 -9 42 -6 l31
6 -21 -22 c-25 -27 -19 -55 8 -48 20 5 22 -2 20 -53 -1 -23 0 -23 8 -5 5 11
10 14 10 7 1 -8 -6 -29 -15 -47 -14 -30 -14 -36 1 -64 16 -33 10 -68 -7 -37
-11 20 -24 21 -32 1 -3 -9 3 -23 14 -32 23 -20 10 -53 -21 -53 -14 0 -19 -6
-17 -19 4 -27 -56 -66 -114 -74 -43 -6 -47 -5 -50 16 -2 18 -10 23 -45 25 -40
3 -43 6 -54 42 -9 31 -9 43 1 55 21 25 -13 67 -53 65 -52 -3 -60 -1 -53 15 8
21 -3 45 -20 45 -8 0 -14 9 -14 20 0 11 -4 20 -10 20 -15 0 -25 71 -10 80 7 4
10 15 7 23 -6 15 43 67 63 67 5 0 7 7 3 16 -5 13 -7 13 -14 2 -6 -9 -9 -6 -9
10 0 28 -25 24 -26 -4 -1 -10 -2 -23 -3 -27 0 -5 -17 1 -37 14 -30 18 -40 20
-55 11 -10 -7 -21 -12 -23 -12 -3 0 -3 27 -1 60 4 52 2 62 -18 80 -22 21 -22
21 -25 2 -4 -25 -32 -38 -43 -20 -13 20 31 59 61 56 14 -2 24 -8 23 -15 -3
-14 24 -25 32 -13 10 16 -14 60 -34 60 -12 0 -21 9 -25 25 -4 15 -13 25 -24
25 -27 0 -45 -16 -39 -34 4 -9 2 -16 -3 -16 -5 0 -12 12 -16 28 -3 15 -8 35
-11 45 -4 16 -2 17 16 7 22 -11 41 -6 41 11 0 5 -13 9 -30 9 -35 0 -41 17 -8
22 13 2 24 11 26 20 2 12 -5 17 -30 20 -27 2 -34 8 -36 28 -2 22 -1 23 8 8 16
-26 30 -22 30 8 0 23 -3 26 -25 22 -17 -4 -25 -1 -25 8 0 8 5 14 10 14 6 0 10
7 10 16 0 8 4 13 8 10 4 -2 14 0 22 5 13 9 13 10 0 8 -8 -1 -26 -1 -39 0 -20
1 -23 5 -18 29 3 16 -2 43 -12 66 -18 38 -18 39 1 58 21 21 36 18 22 -4 -13
-20 -15 -48 -4 -48 6 0 10 7 10 15 0 8 9 15 20 15 21 0 27 15 10 25 -14 9 -12
25 3 25 14 0 67 56 67 71 0 5 5 9 11 9 5 0 8 3 6 8 -3 4 -1 17 4 29 6 16 16
21 38 21 19 -1 31 -6 31 -15 0 -7 -3 -12 -7 -12 -45 7 -63 -9 -45 -39 7 -10
15 -9 40 4 18 8 32 19 32 24 0 4 9 6 20 3 24 -6 27 18 5 37 -14 12 -14 15 1
31 10 11 15 21 13 23 -10 9 -51 17 -46 10 3 -5 -6 -17 -19 -27 -13 -10 -24
-13 -24 -8 0 13 -48 61 -61 61 -6 0 -9 6 -6 13 2 6 11 11 20 9 19 -3 33 36 18
51 -16 16 -62 -8 -55 -28 3 -8 1 -15 -5 -15 -6 0 -11 -9 -11 -20 0 -30 -15
-24 -18 7 -4 50 -28 73 -77 73 -46 0 -75 24 -75 63 0 17 -37 39 -53 30 -4 -2
-3 -13 3 -23 13 -25 13 -30 -4 -30 -15 0 -38 54 -28 65 4 4 7 24 8 46 0 31 -3
39 -18 39 -20 0 -22 -8 -9 -30 6 -8 7 -18 4 -23 -3 -5 -26 30 -50 79 -25 49
-50 96 -57 104 -6 8 -20 32 -30 52 -16 32 -36 43 -36 20 0 -4 33 -64 74 -132
45 -76 70 -127 64 -131 -6 -4 -3 -11 8 -18 13 -9 15 -14 7 -17 -21 -9 -15 -40
10 -53 20 -11 19 -11 -10 -6 -25 3 -33 1 -33 -10 0 -8 6 -15 14 -15 15 0 16
-16 2 -39 -7 -11 -6 -12 5 -5 10 5 8 0 -4 -19 -12 -19 -15 -33 -9 -45 13 -25
4 -42 -23 -42 -25 0 -39 -12 -28 -24 3 -3 12 -1 18 4 8 7 18 4 31 -11 14 -16
15 -22 5 -28 -17 -11 -10 -51 12 -65 15 -9 21 -7 33 8 8 12 14 15 14 7 0 -9 9
-12 24 -9 26 5 36 -7 36 -43 0 -11 7 -22 16 -26 8 -3 13 -12 9 -21 -3 -8 1
-22 9 -31 8 -9 20 -43 25 -76 6 -33 15 -80 21 -105 5 -25 9 -56 10 -69 l0 -24
-25 23 c-14 13 -28 20 -32 16 -4 -4 -1 -11 6 -16 11 -6 4 -15 -27 -37 -44 -30
-52 -43 -26 -43 8 0 12 5 9 10 -8 13 8 13 40 -2 22 -10 27 -9 39 8 8 10 12 22
10 26 -3 5 0 8 5 8 6 0 11 -18 11 -41 0 -24 -4 -38 -10 -34 -5 3 -10 -1 -10
-10 0 -9 5 -13 11 -9 13 8 29 -13 29 -38 0 -11 -8 -18 -19 -18 -11 0 -23 -9
-26 -20 -9 -27 3 -60 21 -60 8 0 14 -9 14 -20 0 -26 -11 -25 -33 1 -12 13 -27
19 -45 17 -25 -3 -27 -6 -26 -48 1 -28 6 -44 13 -43 15 4 8 -60 -8 -65 -6 -2
-11 1 -11 7 0 6 -7 11 -15 11 -8 0 -15 -4 -15 -10 0 -5 5 -10 11 -10 14 0 39
-26 39 -41 0 -10 -3 -10 -12 -1 -7 7 -22 12 -34 12 -13 0 -26 5 -29 10 -11 18
-25 0 -25 -34 0 -47 19 -60 54 -36 24 15 31 16 43 5 21 -21 16 -24 -39 -26
-21 0 -21 0 -5 -32 13 -24 15 -25 30 -9 11 10 17 12 17 4 0 -7 12 -12 28 -12
l27 -1 -27 -20 c-24 -18 -26 -23 -15 -40 10 -18 8 -23 -14 -42 -15 -12 -30
-36 -33 -53 -4 -18 -16 -40 -26 -49 -11 -10 -18 -21 -16 -24 3 -4 -4 -18 -15
-31 -15 -20 -21 -22 -28 -11 -12 18 -51 5 -51 -18 0 -21 -22 -32 -149 -76 -84
-30 -97 -32 -116 -19 -12 8 -25 11 -28 7 -4 -3 -7 -2 -7 4 0 6 7 14 16 17 13
5 14 9 4 21 -15 18 -30 10 -30 -16 0 -26 -26 -24 -33 2 -5 17 -12 21 -36 17
-21 -3 -31 0 -31 9 0 7 7 13 15 13 8 0 15 9 15 20 0 16 -7 20 -35 20 -32 0
-35 -3 -35 -27 l0 -28 -14 26 c-18 34 -25 78 -15 85 19 11 8 34 -16 34 -28 0
-32 -9 -12 -29 10 -10 9 -11 -5 -6 -25 10 -23 45 2 45 26 0 58 65 43 89 -16
25 -53 27 -60 2 -6 -24 -23 -28 -23 -6 0 8 12 21 28 29 25 14 25 15 5 16 -26
0 -38 16 -21 26 6 4 14 2 16 -5 3 -9 7 -9 17 -1 10 8 15 6 20 -9 7 -23 30 -28
41 -10 4 7 -3 19 -14 28 -15 11 -20 23 -16 39 5 16 2 22 -11 22 -13 0 -16 -6
-12 -21 4 -16 2 -19 -10 -15 -9 4 -22 1 -29 -5 -24 -20 -15 -1 12 26 l26 27
-28 15 c-20 12 -52 16 -104 15 -41 -1 -141 -3 -222 -3 l-148 -1 0 -25 c0 -23
-3 -25 -38 -21 -38 3 -38 3 -25 -22 9 -18 9 -26 1 -31 -7 -4 -16 -5 -20 -3 -4
3 -8 -4 -8 -15 0 -39 -10 -51 -37 -40 -34 13 -43 11 -43 -7 0 -11 6 -15 20
-11 16 4 20 0 20 -18 0 -14 -7 -25 -20 -28 -15 -4 -20 -14 -20 -39 l-1 -33
-14 27 c-12 21 -21 26 -40 22 -24 -4 -25 -2 -23 38 3 39 1 43 -22 46 -14 2
-31 9 -38 14 -19 16 -24 4 -17 -36 7 -37 35 -51 35 -18 1 15 2 15 10 1 11 -19
-9 -69 -27 -69 -14 0 -17 -12 -7 -23 7 -6 45 12 57 28 10 14 46 -35 40 -53 -3
-7 -14 -11 -24 -9 -12 3 -19 -1 -21 -16 -2 -12 -12 -21 -26 -24 -22 -3 -22 -2
-7 13 19 20 15 38 -11 43 -28 5 -46 22 -39 39 14 38 -48 57 -79 23 -13 -14
-15 -28 -10 -60 4 -22 10 -41 15 -41 20 0 7 -25 -13 -26 -13 0 -31 -4 -40 -8
-23 -11 -24 20 -2 52 19 28 12 54 -13 45 -26 -9 -32 -23 -26 -54 6 -31 -14
-49 -31 -28 -6 8 -30 23 -53 33 -28 12 -46 28 -54 48 -7 17 -22 39 -33 49 -11
11 -17 19 -13 19 4 0 -2 18 -13 40 -11 21 -20 50 -20 64 0 13 -5 26 -12 28
-14 5 -38 140 -27 152 15 16 10 26 -12 26 -20 0 -21 4 -16 43 4 26 2 48 -4 54
-7 7 -8 24 -4 42 6 27 9 29 26 21 11 -7 19 -7 19 -1 0 5 2 16 5 23 4 9 -5 20
-20 28 -26 14 -33 34 -15 45 6 3 7 -1 4 -9 -5 -12 1 -16 20 -16 15 0 29 -7 32
-15 4 -8 15 -15 25 -15 23 0 23 0 4 36 -8 16 -15 23 -15 16 0 -10 -4 -9 -16 2
-14 15 -28 20 -45 18 -14 -2 8 218 24 237 9 12 9 13 0 7 -17 -10 -16 8 5 119
15 80 20 90 40 93 13 2 26 10 29 18 4 11 14 13 34 9 32 -7 38 9 19 46 -9 16
-7 19 10 19 16 0 20 6 20 31 0 25 3 29 19 24 14 -4 21 0 26 15 3 11 11 20 16
20 12 0 12 37 -1 45 -6 3 -19 3 -31 0 -15 -5 -18 -12 -13 -27 4 -14 2 -18 -5
-14 -6 4 -11 14 -11 22 0 8 -7 14 -16 14 -8 0 -12 5 -9 10 3 6 15 10 26 10 10
0 19 7 19 15 0 11 -5 12 -24 5 -13 -5 -27 -6 -30 -3 -3 4 -6 0 -7 -8 0 -8 -4
-6 -8 6 -10 24 9 91 20 73 6 -9 10 -7 15 7 5 11 3 20 -3 22 -8 3 -4 27 12 73
48 141 33 176 -41 98 -29 -31 -46 -63 -63 -115 -12 -40 -26 -73 -30 -73 -5 0
-9 -10 -9 -22 0 -13 -5 -36 -11 -51 -9 -24 -16 -28 -43 -25 -28 2 -34 -1 -36
-19 -3 -19 1 -23 23 -23 23 0 24 -2 15 -20 -6 -11 -17 -20 -25 -20 -19 0 -37
-34 -29 -54 4 -9 0 -24 -7 -33 -8 -9 -15 -26 -15 -37 -1 -12 -2 -29 -3 -38 0
-10 -8 -18 -17 -18 -8 0 -12 -5 -9 -10 4 -6 9 -8 13 -6 4 2 15 -1 25 -8 16
-12 16 -17 1 -80 -11 -41 -22 -66 -30 -66 -16 0 -19 -27 -4 -32 11 -4 -4 -78
-18 -87 -15 -10 -20 -35 -10 -54 5 -9 6 -22 2 -29 -4 -6 -8 -38 -10 -72 -5
-84 -9 -115 -17 -123 -4 -3 -7 -15 -7 -25 0 -11 -4 -16 -10 -13 -5 3 -10 16
-10 29 0 19 -4 21 -35 18 -27 -3 -39 -11 -51 -33 -14 -28 -14 -30 11 -39 15
-6 32 -10 40 -10 20 0 7 -34 -19 -46 -19 -9 -22 -8 -22 10 1 12 -5 21 -14 21
-8 0 -19 6 -23 13 -11 17 -32 15 -47 -3 -15 -18 -18 -16 -54 46 -22 39 -24 48
-12 52 9 4 28 -7 47 -27 38 -41 61 -38 78 11 15 41 6 56 -37 58 -15 1 -33 5
-40 9 -7 4 -19 2 -27 -4 -12 -10 -17 -7 -26 14 -10 20 -17 24 -36 20 -13 -4
-30 -1 -38 6 -19 15 -45 -3 -45 -30 0 -10 -5 -20 -12 -22 -16 -6 -14 -68 3
-79 8 -5 24 -9 37 -9 15 0 22 -6 22 -18 0 -27 -10 -33 -32 -21 -14 7 -23 7
-34 -2 -12 -10 -14 -6 -14 24 0 20 -4 38 -8 41 -5 3 -7 18 -4 34 3 23 -1 30
-16 34 -20 6 -25 40 -8 66 3 5 -6 19 -21 30 l-28 20 24 26 c13 14 26 24 30 23
3 0 16 5 29 13 24 16 31 66 10 68 -7 0 -23 4 -35 7 -15 5 -23 3 -23 -4 0 -6 3
-10 8 -10 18 3 20 -3 11 -31 -10 -28 -14 -30 -57 -29 -28 1 -36 4 -20 6 28 4
45 30 29 46 -7 7 -7 17 0 29 16 30 3 51 -26 44 -18 -5 -25 -2 -25 8 0 7 9 16
20 19 12 3 20 14 20 26 0 29 -14 26 -43 -9 -31 -36 -37 -37 -37 -6 0 13 -6 27
-12 29 -8 3 -6 6 5 6 15 1 15 4 5 21 -9 14 -10 23 -2 28 6 4 13 15 17 25 7 19
29 14 26 -6 -4 -31 1 -38 15 -25 8 7 12 16 10 19 -2 4 3 6 12 5 21 -1 39 27
31 48 -5 14 -11 15 -27 6 -11 -6 -20 -18 -21 -28 0 -13 -3 -11 -9 6 -10 23
-21 28 -34 15 -9 -10 -66 -11 -66 -2 0 9 23 27 35 27 5 0 11 5 13 11 2 6 -1
11 -7 11 -7 0 -9 10 -5 28 9 37 11 38 34 17 10 -9 26 -15 34 -12 20 8 32 67
15 78 -11 7 -10 9 4 9 9 0 17 5 17 11 0 5 5 7 10 4 11 -7 42 19 34 28 -3 3 4
3 17 0 18 -5 21 -3 16 11 -5 13 -2 15 18 10 15 -4 25 -2 25 4 0 6 11 9 25 6
24 -4 31 4 26 30 -4 17 9 56 18 56 4 0 12 -9 17 -21 8 -18 13 -12 38 48 15 37
54 109 85 158 59 90 136 245 123 245 -4 0 1 5 10 11 15 8 16 13 5 29 -6 11
-16 20 -22 20 -25 0 -127 -94 -159 -147 -37 -61 -119 -223 -130 -259 -4 -12
-16 -30 -27 -40 -20 -18 -21 -18 -34 -1 -7 10 -11 28 -8 40 12 53 58 186 79
229 32 64 145 192 194 219 42 24 49 36 26 45 -23 9 -70 -19 -76 -45 -7 -32
-30 -40 -30 -11 0 35 -48 18 -90 -32 -19 -23 -96 -109 -170 -192 -192 -215
-240 -272 -294 -349 -32 -46 -52 -65 -58 -59 -16 16 34 98 176 286 71 94 151
200 178 236 26 36 61 82 78 102 33 40 36 48 18 48 -23 0 -264 -269 -349 -390
-25 -36 -78 -118 -118 -182 -64 -104 -229 -318 -252 -326 -16 -6 -9 95 11 159
21 66 44 111 169 320 193 325 190 321 369 409 110 53 131 67 135 89 3 14 4 27
3 28 0 1 -31 -7 -67 -17 -37 -10 -114 -26 -171 -35 l-105 -17 -93 -132 c-166
-233 -285 -388 -414 -538 -254 -297 -345 -412 -333 -424 16 -16 193 163 367
371 39 47 76 85 81 85 20 0 -49 -105 -258 -393 -117 -161 -242 -344 -278 -407
-36 -63 -65 -106 -65 -96 0 10 24 59 54 109 94 162 112 206 86 222 -17 11
-236 -65 -260 -90 l-22 -24 -23 27 -24 27 56 105 c31 58 76 143 101 190 25 47
57 101 72 120 15 19 35 50 44 68 16 31 16 32 -5 32 -11 0 -31 -12 -44 -27 -13
-16 -41 -48 -62 -73 -21 -25 -81 -110 -133 -188 -91 -136 -95 -141 -113 -124
-11 9 -28 29 -38 43 l-19 27 42 78 c23 44 60 109 82 146 74 122 490 603 598
691 79 65 213 142 379 219 199 92 291 117 459 125 121 6 139 11 140 41 0 14
-30 14 -130 1z m-495 -1311 c4 -75 10 -160 13 -189 l7 -53 99 147 c54 81 102
149 106 152 7 5 20 -320 20 -525 l0 -125 -222 11 c-325 17 -568 41 -585 58
-16 15 199 303 396 530 159 184 144 170 152 149 3 -10 10 -79 14 -155z m934
-791 c23 -67 103 -279 176 -472 73 -192 135 -359 136 -370 4 -19 -4 -21 -101
-28 -58 -4 -215 -6 -350 -4 -223 3 -256 6 -370 31 -179 40 -337 111 -357 161
-6 16 80 173 265 484 89 148 117 189 122 175 4 -11 44 -161 90 -334 45 -173
85 -318 89 -322 3 -4 60 175 126 397 66 223 122 405 125 405 3 0 25 -55 49
-123z m2427 -862 c-5 -298 -27 -451 -88 -630 -87 -253 -265 -452 -502 -560
-116 -53 -215 -80 -472 -130 -255 -49 -294 -58 -446 -98 l-96 -26 -379 57
-378 58 3 94 c2 52 7 144 12 205 5 60 8 111 6 112 -1 1 -396 54 -517 69 l-46
5 -53 -200 c-30 -110 -57 -197 -60 -193 -3 5 -133 27 -290 51 l-285 42 -90 49
c-378 205 -659 529 -784 905 -25 78 -64 237 -58 241 7 4 516 -78 529 -86 10
-5 23 -10 31 -10 7 0 72 -60 146 -134 l133 -133 -3 -103 -4 -103 178 -52 177
-52 0 58 c0 32 4 60 9 63 5 3 42 2 82 -3 40 -6 79 -6 86 -2 7 4 66 1 131 -6
345 -37 527 -47 864 -48 l346 0 6 -40 c3 -22 11 -88 17 -147 l12 -108 35 -6
c80 -15 317 21 509 77 83 25 76 9 94 197 14 138 8 132 106 113 46 -9 53 -3 53
49 0 15 3 42 6 59 6 28 10 31 45 31 47 0 157 23 229 48 246 85 486 303 647
587 l48 85 8 -73 c5 -39 6 -180 3 -312z"/>
<path d="M2195 6474 c-57 -42 -184 -162 -347 -327 -142 -143 -258 -263 -258
-268 0 -9 87 19 113 36 9 7 65 72 124 146 111 139 210 244 373 392 52 48 93
87 90 87 -3 0 -45 -30 -95 -66z"/>
<path d="M4197 6133 c-16 -4 -17 -17 -11 -176 3 -95 10 -176 14 -180 4 -5 21
15 37 43 26 45 29 58 22 89 -11 49 -30 180 -29 209 0 22 -2 23 -33 15z"/>
<path d="M4293 5908 c-6 -9 5 -63 32 -161 l41 -148 23 65 23 64 -52 96 c-28
53 -53 96 -55 96 -1 0 -7 -6 -12 -12z"/>
</g>
</svg>
