<?xml version="1.0" standalone="no"?>
<!DOCTYPE svg PUBLIC "-//W3C//DTD SVG 20010904//EN"
 "http://www.w3.org/TR/2001/REC-SVG-20010904/DTD/svg10.dtd">
<svg version="1.0" xmlns="http://www.w3.org/2000/svg"
 width="360.000000pt" height="360.000000pt" viewBox="0 0 360.000000 360.000000"
 preserveAspectRatio="xMidYMid meet">
<metadata>
Created by potrace 1.16, written by Peter Selinger 2001-2019
</metadata>
<g transform="translate(0.000000,360.000000) scale(0.100000,-0.100000)"
fill="#000000" stroke="none">
<path d="M2255 2984 c-74 -39 -108 -100 -109 -197 -1 -60 -3 -68 -21 -73 -12
-3 -40 6 -65 20 -26 15 -61 26 -82 26 -33 0 -42 -5 -73 -47 -47 -64 -224 -420
-232 -466 l-6 -37 64 -30 c35 -16 69 -30 76 -30 6 0 26 25 43 55 47 82 49 73
6 -27 -9 -21 -16 -59 -16 -86 0 -40 5 -53 28 -74 15 -14 41 -30 57 -36 l30
-10 -31 -1 c-17 -1 -45 -4 -61 -7 -28 -5 -32 -2 -61 48 -37 67 -115 139 -188
173 -110 52 -194 67 -389 71 -176 4 -179 4 -140 -13 68 -28 167 -98 227 -159
55 -57 128 -165 128 -190 0 -7 -29 -27 -65 -45 -65 -32 -115 -77 -115 -104 0
-8 -13 -15 -32 -17 -23 -2 -36 -10 -43 -25 -5 -12 -22 -25 -37 -28 -16 -4 -28
-11 -28 -16 0 -5 -11 -4 -26 1 -46 18 -126 11 -179 -14 -68 -33 -114 -73 -97
-84 9 -6 6 -12 -13 -20 -74 -34 -233 -180 -220 -202 11 -17 146 -77 224 -100
36 -10 56 -19 44 -19 -42 -2 -24 -18 40 -36 78 -23 191 -25 233 -4 36 18 91
14 117 -9 10 -9 31 -15 47 -14 20 2 37 -6 58 -27 26 -27 72 -45 166 -66 26 -5
28 -8 21 -42 -25 -135 -132 -303 -244 -384 -30 -21 -49 -39 -44 -39 6 0 73 16
150 35 251 63 424 170 492 307 17 33 33 75 37 94 3 19 10 34 14 34 39 0 260
46 360 75 337 97 602 267 700 449 23 44 24 47 8 74 -45 76 -255 201 -400 239
-67 17 -68 18 -68 50 0 38 -49 98 -104 128 -30 16 -38 29 -60 95 -14 43 -30
117 -37 166 -10 77 -9 97 5 146 16 53 20 58 56 68 45 12 102 71 120 125 7 20
10 67 8 105 -7 124 -85 210 -193 210 -27 0 -63 -7 -80 -16z m151 -13 c38 -17
66 -46 92 -98 11 -20 10 -21 -27 -16 -55 8 -98 -18 -123 -74 -24 -55 -21 -136
6 -178 25 -39 29 -25 6 20 -25 49 -25 98 -1 151 30 66 80 89 136 64 14 -7 10
-8 -16 -4 -111 17 -169 -133 -92 -235 17 -22 21 -32 11 -29 -9 4 -20 2 -25 -3
-7 -7 -25 7 -52 40 -24 28 -69 67 -102 87 l-59 37 0 56 c1 150 121 239 246
182z m-426 -227 c0 -3 -13 -22 -30 -42 -43 -53 -128 -212 -196 -363 -38 -84
-62 -125 -68 -119 -13 13 18 88 116 280 85 167 139 250 163 250 8 0 15 -3 15
-6z m105 -54 c0 -8 -5 -14 -12 -13 -7 2 -10 -3 -7 -10 2 -7 -3 -21 -11 -32
-15 -19 -16 -19 -5 5 10 23 10 24 -4 7 -8 -11 -12 -26 -9 -35 4 -10 2 -13 -5
-8 -8 5 -10 1 -5 -10 4 -12 3 -15 -5 -10 -8 5 -10 2 -6 -8 4 -9 0 -18 -9 -22
-9 -3 -13 -12 -10 -21 5 -12 3 -14 -7 -8 -9 5 -11 4 -6 -3 4 -7 2 -12 -4 -12
-6 0 -8 -4 -5 -10 3 -5 1 -10 -5 -10 -6 0 -8 -4 -5 -10 3 -5 1 -10 -5 -10 -6
0 -8 -4 -5 -10 3 -5 1 -10 -5 -10 -6 0 -8 -4 -5 -10 3 -5 1 -10 -5 -10 -6 0
-8 -4 -5 -10 3 -5 1 -10 -6 -10 -7 0 -10 -3 -6 -6 6 -6 -45 -113 -95 -201
l-24 -42 -44 20 c-24 11 -46 22 -48 24 -6 6 128 291 181 383 27 48 63 104 79
125 l30 37 41 -22 c23 -13 42 -30 42 -38z m80 -51 c50 -14 100 -51 120 -89 8
-16 24 -89 34 -162 11 -73 26 -154 34 -180 l15 -47 -35 -7 c-23 -4 -39 -2 -46
6 -7 7 -7 10 -2 7 6 -3 17 -2 25 4 11 6 8 9 -13 9 -36 0 -59 39 -87 144 -38
149 -45 161 -84 161 -26 0 -32 -3 -24 -12 6 -7 21 -13 33 -13 13 0 25 -6 28
-14 7 -18 -40 -30 -82 -21 -29 6 -86 57 -80 72 2 5 22 41 44 81 43 78 48 81
120 61z m-120 -285 c32 -6 93 -3 124 7 8 2 17 -7 22 -26 11 -35 -17 -99 -39
-90 -7 2 -66 10 -130 16 -64 7 -118 13 -120 14 -8 6 22 64 31 58 5 -3 7 -2 4
4 -4 6 -1 24 5 41 l12 31 28 -24 c16 -13 44 -27 63 -31z m0 -141 c50 -4 79 -9
65 -11 -48 -7 -41 -19 9 -14 40 4 64 -2 128 -28 183 -75 265 -132 277 -191 3
-18 -1 -107 -10 -200 -9 -92 -14 -175 -11 -183 3 -8 34 -33 69 -57 73 -48 108
-78 108 -92 0 -16 -140 -2 -223 23 -76 23 -78 24 -70 49 14 48 7 116 -21 191
-30 79 -41 200 -20 207 6 2 20 10 30 19 18 13 17 14 -8 8 -31 -7 -37 6 -13 26
8 7 15 18 15 24 0 6 -14 -4 -31 -22 l-30 -34 -185 31 c-102 17 -200 38 -218
46 -55 26 -68 77 -41 155 21 58 32 70 63 65 15 -2 68 -8 117 -12z m131 -278
c81 -14 148 -25 149 -25 1 0 0 -24 -3 -54 -2 -30 1 -69 7 -86 10 -29 9 -31 -7
-25 -9 4 -38 10 -65 13 -65 6 -128 -19 -171 -70 -104 -121 -35 -304 124 -332
49 -8 130 17 163 52 l27 28 79 -20 78 -20 7 -65 c3 -36 2 -69 -2 -73 -15 -15
-221 -88 -318 -113 -265 -67 -570 -92 -731 -62 -85 16 -144 39 -164 63 -10 12
-38 191 -39 250 0 20 6 21 183 27 240 9 296 18 358 57 27 18 47 36 44 41 -3 4
-30 16 -61 26 -49 15 -65 16 -152 5 -53 -7 -161 -25 -239 -41 l-142 -28 -5 26
c-3 14 -10 73 -17 129 -11 97 -10 106 8 130 43 57 185 116 365 152 223 44 334
47 524 15z m145 -248 c19 -12 42 -39 52 -59 17 -34 17 -39 1 -103 -14 -55 -22
-70 -48 -86 -86 -53 -210 11 -232 118 -9 46 25 115 67 136 50 24 119 22 160
-6z m-1217 -43 c16 -6 30 -82 31 -171 0 -29 3 -53 6 -53 3 0 9 -30 13 -67 4
-38 9 -83 12 -100 6 -31 4 -34 -37 -53 -51 -23 -132 -26 -208 -8 -52 12 -52
27 -1 28 14 1 -16 12 -66 24 -96 25 -240 81 -250 98 -14 22 124 141 229 199
44 24 49 36 15 30 -5 0 -8 3 -8 8 0 12 62 50 109 68 34 13 118 11 155 -3z"/>
</g>
</svg>
